<?xml version="1.0" encoding="UTF-8"?>
<svg width="140px" height="21.6317011px" viewBox="0 0 140 21.6317011" version="1.1" xmlns="http://www.w3.org/2000/svg" xmlns:xlink="http://www.w3.org/1999/xlink">
    <title>Group</title>
    <g id="Page-1" stroke="none" stroke-width="1" fill="none" fill-rule="evenodd">
        <g id="Group" transform="translate(0, 0)">
            <path d="M29.6798081,5.34240067 L33.0181799,5.34240067 L33.0181799,7.27807572 C33.6983761,5.79992515 35.0031605,5.03973749 37.009044,5.03973749 C38.8413029,5.03973749 40.3960227,5.92661972 41.2566443,7.53144456 C42.1380689,5.92661972 43.3943464,5.03973749 45.6777691,5.03973749 C48.4887664,5.03973749 50.6472715,7.15136087 50.6472715,10.4876848 L50.6472715,18.582302 L47.2602928,18.582302 L47.2602928,11.3252829 C47.2602928,9.03066187 46.1775398,8.03828367 44.650624,8.03828367 C43.1237082,8.03828367 41.9854473,8.77729303 41.9854473,11.3252829 L41.9854473,18.582302 L38.5984686,18.582302 L38.5984686,11.3252829 C38.5984686,9.03066187 37.4671087,8.03828367 35.7874713,8.03828367 C34.3577692,8.03828367 33.0736878,9.03066187 33.0736878,11.3252829 L33.0736878,18.582302 L29.6867091,18.582302 L29.6867091,5.34240067 L29.6798081,5.34240067 Z" id="Path" fill="#000000" fill-rule="nonzero"></path>
            <path d="M52.0423687,12.0150993 C52.0423687,8.19306383 54.9018728,5.0608448 58.4970809,5.0608448 C60.7597007,5.0608448 61.9395675,6.00404023 62.6405665,7.42585731 L62.6405665,5.33536152 L66.0067423,5.33536152 L66.0067423,18.582302 L62.7168773,18.582302 L62.7168773,16.4143654 C62.0158783,17.9205813 60.8360115,18.9060623 58.4970809,18.9060623 C54.9087738,18.9060623 52.0423687,15.8230362 52.0423687,12.0081007 L52.0423687,12.0150993 Z M59.0453584,15.8090391 C61.2801743,15.8090391 62.7099764,14.0774486 62.7099764,12.0150993 C62.7099764,9.95274999 61.2801743,8.17196667 59.0453584,8.17196667 C56.8104426,8.17196667 55.4293474,9.93165282 55.4293474,11.9940022 C55.4293474,14.0563515 56.8868534,15.8160376 59.0453584,15.8160376 L59.0453584,15.8090391 Z" id="Shape" fill="#000000" fill-rule="nonzero"></path>
            <path d="M69.6796614,0.197116495 C70.8595282,0.197116495 71.7132488,1.11214518 71.7132488,2.21019177 C71.7132488,3.30823837 70.8595282,4.2443845 69.6796614,4.2443845 C68.4997946,4.2443845 67.646074,3.32935582 67.646074,2.21019177 C67.646074,1.09103787 68.5274986,0.197116495 69.6796614,0.197116495 Z M68.020927,5.3424311 L71.4079057,5.3424311 L71.4079057,18.5893006 L68.020927,18.5893006 L68.020927,5.3424311 Z" id="Shape" fill="#000000" fill-rule="nonzero"></path>
            <polygon id="Path" fill="#000000" fill-rule="nonzero" points="73.4281912 -1.77635684e-15 76.8151699 -1.77635684e-15 76.8151699 18.5893006 73.4281912 18.5893006"></polygon>
            <path d="M78.3185824,11.965805 C78.3185824,8.12267233 81.2335944,5.0397172 85.2244584,5.01157074 C87.6119958,4.98341414 89.5414685,5.92659943 90.6520255,7.48215022 L88.0353557,9.65008681 C87.4315703,8.73509869 86.4252281,8.1508695 85.2730653,8.1508695 C83.1145602,8.1508695 81.7055611,9.91055566 81.7055611,11.972905 C81.7055611,14.0352543 83.18397,15.7949405 85.3424751,15.7949405 C86.6472595,15.7949405 87.5009801,15.1332198 88.1811763,14.2182317 L90.6450245,16.3861682 C89.4165509,17.9909728 87.6050949,18.9341581 85.0440329,18.9341581 C81.3030042,18.9341581 78.3116814,15.8301362 78.3116814,11.9799036 L78.3185824,11.965805 Z" id="Path" fill="#000000" fill-rule="nonzero"></path>
            <path d="M90.6571262,12.0150993 C90.6571262,8.19306383 93.5166304,5.0608448 97.1118385,5.0608448 C99.3742582,5.0608448 100.554425,6.00404023 101.255524,7.42585731 L101.255524,5.33536152 L104.622,5.33536152 L104.622,18.582302 L101.331535,18.582302 L101.331535,16.4143654 C100.630436,17.9205813 99.4512691,18.9060623 97.1118385,18.9060623 C93.5236313,18.9060623 90.6571262,15.8230362 90.6571262,12.0081007 L90.6571262,12.0150993 Z M97.660216,15.8090391 C99.8953319,15.8090391 101.324534,14.0774486 101.324534,12.0150993 C101.324534,9.95274999 99.8953319,8.17196667 97.660216,8.17196667 C95.4253001,8.17196667 94.0441049,9.93165282 94.0441049,11.9940022 C94.0441049,14.0563515 95.5017109,15.8160376 97.660216,15.8160376 L97.660216,15.8090391 Z" id="Shape" fill="#000000" fill-rule="nonzero"></path>
            <path d="M107.59342,14.4856991 L107.59342,8.27045392 L105.761161,8.27045392 L105.761161,5.3423601 L107.59342,5.3423601 L107.59342,2.66763512 L110.979898,2.31569789 L110.979898,5.3423601 L113.742289,5.3423601 L113.742289,8.27045392 L110.979898,8.27045392 L110.979898,14.3097203 C110.979898,15.1473184 111.382955,15.5344716 112.035048,15.5344716 L113.437246,15.5344716 L113.437246,18.5893006 L111.576983,18.5893006 C108.988617,18.5893006 107.586419,17.3645493 107.586419,14.4926977 L107.59342,14.4856991 Z" id="Path" fill="#000000" fill-rule="nonzero"></path>
            <path d="M114.019328,11.965805 C114.019328,8.12267233 116.93374,5.0397172 120.925304,5.01157074 C123.312642,4.98341414 125.241914,5.92659943 126.352071,7.48215022 L123.735701,9.65008681 C123.131616,8.73509869 122.125474,8.1508695 120.973311,8.1508695 C118.815006,8.1508695 117.405807,9.91055566 117.405807,11.972905 C117.405807,14.0352543 118.884016,15.7949405 121.042321,15.7949405 C122.347505,15.7949405 123.201626,15.1332198 123.881722,14.2182317 L126.34507,16.3861682 C125.116897,17.9909728 123.305641,18.9341581 120.744279,18.9341581 C117.00375,18.9341581 114.012327,15.8301362 114.012327,11.9799036 L114.019328,11.965805 Z" id="Path" fill="#000000" fill-rule="nonzero"></path>
            <path d="M127.701262,-1.77635684e-15 L131.088741,-1.77635684e-15 L131.088741,7.17948704 C131.78984,5.75769025 133.073021,5.03973749 135.030298,5.03973749 C137.841695,5.03973749 140,7.15136087 140,10.4876848 L140,18.582302 L136.613521,18.582302 L136.613521,11.3252829 C136.613521,9.03066187 135.481361,8.03828367 133.802124,8.03828367 C132.372922,8.03828367 131.088741,9.03066187 131.088741,11.3252829 L131.088741,18.582302 L127.701262,18.582302 L127.701262,-1.77635684e-15 Z" id="Path" fill="#000000" fill-rule="nonzero"></path>
            <g id="Group-3" transform="translate(0, 0.6317)" fill="#1A96FC">
                <path d="M20.6953454,14.1949859 C20.3135971,13.5544678 20.1375457,12.80331 20.2009849,12.0536163 L20.1982531,12.0550803 C20.5139315,9.89227297 20.1815585,7.61004167 19.1038001,5.53467941 C16.3384776,0.209647333 9.7619456,-1.64820021 4.72660203,1.62398447 C0.476599523,4.3879272 -1.17937648,10.0655527 0.884532904,14.7967069 C3.33119223,20.400116 9.80545255,22.6085178 14.957587,19.7502908 C15.4560958,19.4736915 15.9246556,19.1594455 16.3562851,18.8147684 L16.9584012,18.4807578 C17.4460838,18.2102239 17.9885043,18.0652838 18.5418521,18.0629831 L23,18.038199 L20.6953454,14.1949859 Z M17.7414253,10.8723441 C17.8507997,9.43643325 17.5857108,7.95367309 16.8919266,6.57985853 L16.8885877,6.58163629 C15.0358995,2.91223628 10.6486781,1.31109792 6.97982739,2.97814951 C2.88989002,4.8375343 1.28075988,9.97687365 3.21828661,13.8857595 C5.15580323,17.7945407 9.79189457,19.3426598 13.5738634,17.340165 L13.7448558,17.2496036 L13.7481948,17.2478258 L15.1764371,16.4915439 C16.1252935,15.9891686 17.1948565,15.7815884 18.2539979,15.8944242 L18.739657,15.9434696 L19.4446721,16.0164625 L18.3384824,13.7848452 C17.8953185,12.8907342 17.686991,11.8898528 17.7398064,10.886357 L17.7414253,10.8723441 Z" id="Shape"></path>
                <path d="M12.9251038,14.554408 C10.6668903,16.10922 7.59206135,15.4150552 6.17872264,12.9841191 C4.93644722,10.8454685 5.46990323,8.00836549 7.39628004,6.50971003 C8.50236857,5.64881189 9.83550271,5.36125326 11.0858725,5.5838712 C11.7246153,5.69652918 12.2076437,6.27966731 12.190848,6.94756297 C12.1737488,7.57438181 12.3401882,8.21239011 12.7020042,8.77646432 C13.0638202,9.34053854 13.5704233,9.74241789 14.1372279,9.96798483 C14.7500689,10.2122706 15.0734369,10.910932 14.924805,11.5714238 C14.6598173,12.7499771 13.9734191,13.8304396 12.9224732,14.5527349 L12.9251038,14.554408 Z" id="Path" fill-rule="nonzero"></path>
            </g>
        </g>
    </g>
</svg>